<svg width="520" height="87" viewBox="0 0 520 87" fill="none" xmlns="http://www.w3.org/2000/svg">
    <path
        d="M35.0153 9.52269C34.9513 9.65069 34.7913 9.87469 34.5353 10.1947C34.3433 10.5147 34.1513 10.7707 33.9593 10.9627C33.8953 11.0267 33.7033 11.2827 33.3833 11.7307C33.0633 12.1787 32.7433 12.6587 32.4233 13.1707C32.1033 13.6187 31.8153 14.0667 31.5593 14.5147C31.3033 14.8987 31.1753 15.0907 31.1753 15.0907C36.8073 15.0267 41.8313 14.9627 46.2473 14.8987C48.1673 14.8347 50.0553 14.8027 51.9113 14.8027C53.7673 14.7387 55.4313 14.6747 56.9033 14.6107C58.3753 14.5467 59.5913 14.4827 60.5513 14.4187C61.5113 14.3547 62.0553 14.2907 62.1833 14.2267C62.3113 14.1627 62.4713 14.1307 62.6633 14.1307C63.1113 14.1307 63.3993 14.3547 63.5273 14.8027C63.6553 15.1867 63.4313 15.4747 62.8553 15.6667C62.6633 15.7307 62.0233 15.7947 60.9353 15.8587C59.9113 15.9227 58.5993 15.9867 56.9993 16.0507C55.4633 16.1147 53.7033 16.1787 51.7193 16.2427C49.7993 16.3067 47.8473 16.3707 45.8633 16.4347C41.1273 16.5627 35.8473 16.6907 30.0233 16.8187C26.3113 22.5787 23.1113 28.0507 20.4233 33.2347C17.7993 38.3547 15.6553 42.8667 13.9913 46.7707C12.3273 50.6107 11.1753 53.6827 10.5353 55.9867C9.89525 58.2907 9.73525 59.4427 10.0553 59.4427C10.4393 59.4427 11.0793 59.1547 11.9753 58.5787C12.8713 57.9387 13.9593 57.1387 15.2393 56.1787C16.4553 55.1547 17.7673 54.0347 19.1753 52.8187C20.6473 51.5387 22.1193 50.2587 23.5913 48.9787C26.9833 45.9067 30.7273 42.4187 34.8233 38.5147C35.5273 38.6427 35.8473 38.8987 35.7833 39.2827C35.7193 39.6027 35.4953 39.9867 35.1113 40.4347C35.0473 40.4987 34.5353 40.9787 33.5753 41.8747C32.6153 42.7707 31.3993 43.9227 29.9273 45.3307C28.4553 46.7387 26.8233 48.2747 25.0313 49.9387C23.2393 51.5387 21.4793 53.1067 19.7513 54.6427C18.0233 56.1147 16.4233 57.4267 14.9513 58.5787C13.4793 59.7307 12.3273 60.4987 11.4953 60.8827C11.1753 61.0107 10.9513 61.1067 10.8233 61.1707C10.6313 61.1707 10.3753 61.2027 10.0553 61.2667C8.64725 61.2667 8.00725 60.4987 8.13525 58.9627C8.13525 57.9387 8.58325 56.1787 9.47925 53.6827C10.3113 51.1227 11.4633 48.1467 12.9353 44.7547C14.4073 41.2987 16.1673 37.5867 18.2153 33.6187C20.3273 29.5867 22.5673 25.5867 24.9353 21.6187C25.1273 21.2987 25.3833 20.8827 25.7033 20.3707C26.0873 19.7947 26.4393 19.2827 26.7593 18.8347C27.0793 18.3227 27.3353 17.9067 27.5273 17.5867C27.7193 17.2027 27.8153 17.0107 27.8153 17.0107C27.8153 17.0747 26.8233 17.1387 24.8393 17.2027C19.3993 17.5227 15.0153 17.8427 11.6873 18.1627C8.35925 18.4827 5.83125 18.6427 4.10325 18.6427C1.86325 18.6427 0.743254 18.1947 0.743254 17.2987C0.743254 16.9787 0.999254 16.5947 1.51125 16.1467C1.95925 15.6347 2.50325 15.1547 3.14325 14.7067C3.78325 14.2587 4.42325 13.8747 5.06325 13.5547C5.63925 13.2347 6.08725 13.0747 6.40725 13.0747C6.59925 13.0747 6.75925 13.1387 6.88725 13.2667C7.33525 13.7147 7.17525 14.1627 6.40725 14.6107C5.63925 14.9947 4.58325 15.6667 3.23925 16.6267C3.04725 16.7547 2.91925 16.8507 2.85525 16.9147C2.79125 16.9147 2.82325 16.9147 2.95125 16.9147H3.81525C3.81525 16.9147 4.19925 16.9147 4.96725 16.9147C5.67125 16.8507 6.63125 16.7867 7.84725 16.7227C9.06325 16.5947 10.4393 16.4987 11.9753 16.4347C13.4473 16.3067 14.9513 16.1787 16.4873 16.0507C20.1353 15.8587 24.2953 15.6027 28.9673 15.2827C29.0953 15.1547 29.5113 14.5147 30.2153 13.3627C30.9833 12.2107 31.8153 11.0587 32.7113 9.90669C33.4793 8.94669 34.0233 8.46669 34.3433 8.46669C34.4073 8.46669 34.4393 8.49869 34.4393 8.56269C34.5033 8.56269 34.5673 8.56269 34.6313 8.56269C35.0793 8.81869 35.2073 9.13869 35.0153 9.52269ZM50.3048 35.6347C51.0088 35.6347 51.4248 35.8587 51.5528 36.3067C51.6808 36.7547 51.5848 37.2987 51.2648 37.9387C51.1368 38.1947 50.9448 38.5147 50.6888 38.8987C50.4968 39.2187 50.1448 39.6987 49.6328 40.3387C49.1848 40.9787 48.5448 41.8427 47.7128 42.9307C46.9448 44.0187 45.9208 45.4907 44.6408 47.3467C42.8488 49.9067 41.9848 51.1867 42.0488 51.1867C42.1768 51.1867 43.3288 50.0667 45.5048 47.8267C47.7448 45.5867 51.0728 42.4827 55.4888 38.5147C56.3208 38.7067 56.6728 38.9627 56.5448 39.2827C56.4808 39.5387 56.3528 39.7627 56.1608 39.9547L47.2328 48.6907C45.7608 50.1627 44.5128 51.3787 43.4888 52.3387C42.4648 53.2987 41.6328 54.0667 40.9928 54.6427C40.3528 55.2187 39.8408 55.6347 39.4568 55.8907C39.0728 56.1467 38.7528 56.2747 38.4968 56.2747C38.2408 56.2747 38.0168 56.1787 37.8248 55.9867C37.3768 55.5387 37.4728 54.7387 38.1128 53.5867C38.7528 52.4347 40.0968 50.3867 42.1448 47.4427C43.4888 45.4587 44.6088 43.8587 45.5048 42.6427C46.4648 41.3627 47.2008 40.3707 47.7128 39.6667C48.2248 38.8987 48.5768 38.3867 48.7688 38.1307C48.9608 37.8747 49.0248 37.7467 48.9608 37.7467C48.8968 37.7467 48.6088 37.8427 48.0968 38.0347C47.6488 38.1627 47.1688 38.3227 46.6568 38.5147C45.4408 38.8987 44.3208 39.1547 43.2968 39.2827C42.2728 39.4107 41.1208 39.4747 39.8408 39.4747C39.4568 39.4747 39.1048 39.5707 38.7848 39.7627C38.4648 39.9547 38.1128 40.0507 37.7288 40.0507C37.2808 40.0507 37.0568 39.8267 37.0568 39.3787C37.1208 38.9947 37.2808 38.7707 37.5368 38.7067C37.7928 38.6427 37.8568 38.5147 37.7288 38.3227C37.6008 37.7467 37.6648 37.1707 37.9208 36.5947C38.1128 36.2747 38.4328 35.9227 38.8808 35.5387C39.3288 35.0907 39.8408 34.7067 40.4168 34.3867C40.9928 34.0027 41.5688 33.6827 42.1448 33.4267C42.7848 33.1707 43.3288 33.0427 43.7768 33.0427C44.5448 33.0427 44.9288 33.4267 44.9288 34.1947C44.9288 34.7707 44.5768 35.4107 43.8728 36.1147C43.1688 36.8187 42.5928 37.3307 42.1448 37.6507C42.9768 37.5227 44.0328 37.2987 45.3128 36.9787C46.5928 36.6587 47.9688 36.2427 49.4408 35.7307C49.6968 35.6667 49.9848 35.6347 50.3048 35.6347ZM41.7608 35.6347C41.2488 35.9547 40.7368 36.3387 40.2248 36.7867C39.7128 37.2347 39.5208 37.4587 39.6488 37.4587C39.7128 37.4587 39.9688 37.2987 40.4168 36.9787C40.9288 36.5947 41.3448 36.2427 41.6648 35.9227C41.8568 35.7307 41.9528 35.6027 41.9528 35.5387L42.0488 35.4427L41.9528 35.5387C41.8888 35.5387 41.8248 35.5707 41.7608 35.6347ZM61.3995 35.9227C61.7195 35.9227 61.9755 36.0507 62.1675 36.3067C62.3595 36.4987 62.4235 36.7547 62.3595 37.0747C62.2955 37.3947 62.0075 37.8107 61.4955 38.3227C61.0475 38.8347 60.6635 39.1227 60.3435 39.1867C60.0235 39.3147 59.7995 39.5067 59.6715 39.7627C59.5435 39.9547 59.5115 40.0507 59.5755 40.0507C59.6395 40.1147 59.8315 40.0187 60.1515 39.7627C60.4715 39.4427 60.8235 39.1227 61.2075 38.8027C61.6555 38.4827 62.0715 38.1627 62.4555 37.8427C62.8395 37.5227 63.0955 37.3627 63.2235 37.3627C63.9275 37.2347 64.2795 37.5867 64.2795 38.4187C64.2795 38.6747 63.9595 39.4107 63.3195 40.6267C62.6795 41.7787 61.9435 43.1547 61.1115 44.7547C60.2795 46.3547 59.4475 48.0507 58.6155 49.8427C57.8475 51.6347 57.3355 53.2667 57.0795 54.7387C56.9515 55.6987 56.9515 56.1787 57.0795 56.1787C57.3995 56.1787 58.0075 55.7947 58.9035 55.0267C59.7995 54.2587 60.8555 53.2667 62.0715 52.0507C63.2875 50.8347 64.5675 49.5227 65.9115 48.1147C67.2555 46.6427 68.5355 45.2667 69.7515 43.9867C71.0315 42.7067 72.1195 41.5547 73.0155 40.5307C73.9755 39.5067 74.6475 38.8347 75.0315 38.5147C75.6075 38.5787 75.9595 38.7067 76.0875 38.8987C76.2155 39.0907 76.0555 39.5067 75.6075 40.1467C75.1595 40.7227 74.3595 41.6507 73.2075 42.9307C72.0555 44.1467 70.4235 45.8747 68.3115 48.1147C65.3675 51.3147 62.9995 53.8107 61.2075 55.6027C59.4155 57.3307 57.9755 58.1947 56.8875 58.1947C56.6955 58.1947 56.5355 58.1627 56.4075 58.0987C55.6395 57.8427 55.2235 57.2667 55.1595 56.3707C55.0315 55.4747 55.1275 54.4187 55.4475 53.2027C55.7675 51.9867 56.2155 50.7067 56.7915 49.3627C57.3035 48.0187 57.8155 46.8027 58.3275 45.7147C58.9035 44.5627 59.3835 43.6027 59.7675 42.8347C60.2155 42.0667 60.4395 41.6827 60.4395 41.6827C60.4395 41.6187 60.2475 41.6827 59.8635 41.8747C59.4795 42.0667 59.1275 42.1947 58.8075 42.2587C58.2955 42.3227 57.9115 42.1947 57.6555 41.8747C57.3355 41.4907 57.2395 41.0107 57.3675 40.4347C57.4315 40.1147 57.6235 39.6987 57.9435 39.1867C58.1995 38.6747 58.5195 38.1947 58.9035 37.7467C59.3515 37.2347 59.7675 36.8187 60.1515 36.4987C60.5995 36.1147 61.0155 35.9227 61.3995 35.9227ZM77.895 47.7307C77.063 48.5627 76.359 48.9787 75.783 48.9787C75.591 48.9787 75.431 48.9467 75.303 48.8827C74.727 48.5627 74.567 47.7307 74.823 46.3867C74.951 45.8107 75.207 45.0747 75.591 44.1787C75.911 43.2187 76.263 42.2907 76.647 41.3947C77.031 40.4347 77.383 39.6027 77.703 38.8987C78.023 38.1947 78.279 37.7467 78.471 37.5547C78.599 37.3627 78.759 37.2667 78.951 37.2667C79.335 37.2667 79.591 37.4907 79.719 37.9387C79.719 38.2587 79.367 39.1867 78.663 40.7227C77.959 42.1947 77.255 44.0507 76.551 46.2907C76.423 46.6747 76.391 46.8667 76.455 46.8667C76.519 46.8667 76.775 46.6427 77.223 46.1947C77.607 45.7467 77.991 45.2347 78.375 44.6587C79.271 43.5067 80.007 42.5467 80.583 41.7787C81.159 41.0107 81.607 40.4027 81.927 39.9547C82.247 39.4427 82.503 39.0907 82.695 38.8987C82.951 38.6427 83.175 38.5147 83.367 38.5147C83.559 38.5147 83.687 38.5467 83.751 38.6107C84.071 38.6747 84.263 39.0587 84.327 39.7627C84.455 40.5307 84.679 40.9147 84.999 40.9147C85.383 40.9147 86.119 40.6907 87.207 40.2427C88.295 39.7947 90.055 39.2187 92.487 38.5147C93.063 38.7707 93.351 39.0587 93.351 39.3787C93.351 39.6987 93.127 39.9227 92.679 40.0507C91.015 40.4987 89.511 41.0427 88.167 41.6827C86.823 42.3227 85.703 42.6427 84.807 42.6427C84.103 42.6427 83.559 42.3227 83.175 41.6827C83.111 41.5547 83.079 41.4907 83.079 41.4907L82.983 41.3947C82.983 41.3947 82.823 41.5867 82.503 41.9707C81.863 42.8667 81.063 43.9227 80.103 45.1387C79.143 46.3547 78.407 47.2187 77.895 47.7307ZM115.752 28.7227C117.096 27.3787 118.024 26.4507 118.536 25.9387C119.112 25.3627 119.592 24.7547 119.976 24.1147C120.36 23.4747 120.808 22.6107 121.32 21.5227C121.896 20.4347 122.856 18.6747 124.2 16.2427C124.584 15.4747 125.288 14.2267 126.312 12.4987C127.4 10.7067 128.584 8.91469 129.864 7.12269C131.144 5.2667 132.424 3.6347 133.704 2.22669C134.984 0.818693 136.04 0.114693 136.872 0.114693C137.064 0.114693 137.224 0.146692 137.352 0.210691C138.12 0.530695 138.248 1.3627 137.736 2.70669C137.224 4.0507 136.456 5.5547 135.432 7.21869C134.472 8.88269 133.416 10.5147 132.264 12.1147C131.112 13.7147 130.248 14.8987 129.672 15.6667C128.2 17.5867 127.016 19.0587 126.12 20.0827C125.224 21.1067 124.488 21.9067 123.912 22.4827C123.4 23.0587 122.984 23.4747 122.664 23.7307C122.408 23.9867 122.152 24.3067 121.896 24.6907C121.64 25.0747 121.352 25.5867 121.032 26.2267C120.712 26.8667 120.232 27.8587 119.592 29.2027C118.824 30.8027 117.928 32.7547 116.904 35.0587C115.944 37.2987 114.984 39.6347 114.024 42.0667C113.128 44.4347 112.328 46.7387 111.624 48.9787C110.92 51.2187 110.472 53.1067 110.28 54.6427C110.216 55.3467 110.248 55.6987 110.376 55.6987C110.376 55.6987 110.504 55.6347 110.76 55.5067C111.144 55.2507 111.624 54.8667 112.2 54.3547C112.776 53.8427 113.64 53.0107 114.792 51.8587C115.944 50.6427 117.448 48.9787 119.304 46.8667C121.16 44.7547 123.592 41.9707 126.6 38.5147C127.752 38.5147 128.072 38.8987 127.56 39.6667C127.048 40.3707 126.088 41.5227 124.68 43.1227C122.312 45.8747 120.328 48.1787 118.728 50.0347C117.128 51.8267 115.752 53.2987 114.6 54.4507C113.512 55.5387 112.616 56.3387 111.912 56.8507C111.208 57.2987 110.6 57.5227 110.088 57.5227H109.8C109.096 57.3947 108.68 56.9147 108.552 56.0827C108.424 55.2507 108.456 54.2907 108.648 53.2027C108.84 52.1147 109.096 51.0267 109.416 49.9387C109.8 48.7867 110.088 47.8907 110.28 47.2507C111.112 44.4987 111.976 42.0347 112.872 39.8587C113.768 37.6187 114.568 35.7307 115.272 34.1947C115.976 32.6587 116.52 31.4747 116.904 30.6427C117.352 29.8107 117.512 29.3947 117.384 29.3947L117 29.7787C116.36 30.4187 115.464 31.3147 114.312 32.4667C113.16 33.5547 111.848 34.7387 110.376 36.0187C108.968 37.2987 107.464 38.6107 105.864 39.9547C104.328 41.2987 102.792 42.5147 101.256 43.6027C99.784 44.6267 98.408 45.4907 97.128 46.1947C95.848 46.8347 94.792 47.1227 93.96 47.0587C93.256 46.9947 92.776 46.7707 92.52 46.3867C92.2 46.0027 92.04 45.5227 92.04 44.9467C92.04 44.3707 92.168 43.7627 92.424 43.1227C92.616 42.4187 92.904 41.7787 93.288 41.2027C93.544 40.6907 93.928 40.1467 94.44 39.5707C94.888 38.9947 95.368 38.4827 95.88 38.0347C96.456 37.5227 97.032 37.1067 97.608 36.7867C98.184 36.4027 98.696 36.2107 99.144 36.2107C99.656 36.2107 100.04 36.4347 100.296 36.8827C100.552 37.3307 100.52 37.8107 100.2 38.3227C99.944 38.8347 99.528 39.3467 98.952 39.8587C98.376 40.3067 97.736 40.7227 97.032 41.1067C96.392 41.4267 95.848 41.5867 95.4 41.5867C95.08 41.6507 94.92 41.7147 94.92 41.7787C94.856 41.7787 94.728 41.9387 94.536 42.2587C93.448 44.3707 93.384 45.4267 94.344 45.4267C94.984 45.4267 96.072 44.9467 97.608 43.9867C99.144 43.0267 100.872 41.7787 102.792 40.2427C104.776 38.7067 106.888 36.9467 109.128 34.9627C111.432 32.9147 113.64 30.8347 115.752 28.7227ZM124.968 18.4507C124.84 18.6427 124.712 18.8347 124.584 19.0267C124.52 19.2187 124.52 19.3147 124.584 19.3147C124.648 19.3147 125.064 18.8347 125.832 17.8747C129.608 13.3307 132.296 9.61869 133.896 6.73869C135.56 3.79469 136.36 2.22669 136.296 2.0347C136.296 1.97069 136.104 2.09869 135.72 2.41869C135.4 2.7387 135.016 3.1547 134.568 3.66669C134.12 4.11469 133.64 4.6587 133.128 5.29869C132.68 5.87469 132.264 6.4507 131.88 7.0267C131.432 7.73069 130.632 8.91469 129.48 10.5787C128.392 12.1787 126.888 14.8027 124.968 18.4507ZM96.456 39.6667C96.456 39.7307 96.584 39.6667 96.84 39.4747C97.16 39.2827 97.448 39.0907 97.704 38.8987C98.024 38.6427 98.28 38.4187 98.472 38.2267C98.728 37.9707 98.824 37.8427 98.76 37.8427C98.696 37.8427 98.536 37.9387 98.28 38.1307C98.024 38.3227 97.736 38.5467 97.416 38.8027C97.16 38.9947 96.936 39.1867 96.744 39.3787C96.552 39.5707 96.456 39.6667 96.456 39.6667ZM163.502 38.5147C164.078 38.6427 164.398 38.8987 164.462 39.2827C164.526 39.6027 164.334 39.8907 163.886 40.1467C162.414 40.9147 161.006 41.7147 159.662 42.5467C158.318 43.3787 157.07 44.1467 155.918 44.8507C154.766 45.4907 153.71 46.0347 152.75 46.4827C151.854 46.9307 151.086 47.1547 150.446 47.1547H150.158C149.262 46.9627 148.878 46.3227 149.006 45.2347C149.07 44.1467 149.358 42.9947 149.87 41.7787C150.382 40.4987 150.958 39.3467 151.598 38.3227C152.302 37.2347 152.814 36.6267 153.134 36.4987C153.198 36.4987 153.23 36.4987 153.23 36.4987C153.294 36.4347 153.358 36.4027 153.422 36.4027C153.87 36.4027 154.094 36.6907 154.094 37.2667C154.094 37.3307 154.03 37.5547 153.902 37.9387C153.646 38.3227 153.486 38.7067 153.422 39.0907C153.422 39.4107 153.262 39.5707 152.942 39.5707C152.878 39.5707 152.686 39.8587 152.366 40.4347C152.11 40.9467 151.854 41.5547 151.598 42.2587C151.278 42.9627 151.022 43.6347 150.83 44.2747C150.638 44.8507 150.606 45.2027 150.734 45.3307C150.798 45.3947 151.31 45.2027 152.27 44.7547C153.294 44.2427 154.446 43.6347 155.726 42.9307C157.07 42.1627 158.446 41.3947 159.854 40.6267C161.326 39.7947 162.542 39.0907 163.502 38.5147ZM157.742 29.5867C157.166 30.4827 156.782 31.1227 156.59 31.5067C156.462 31.8267 156.334 32.0507 156.206 32.1787C156.142 32.1787 156.078 32.2107 156.014 32.2747C156.014 32.2747 155.982 32.2747 155.918 32.2747C155.662 32.2747 155.438 32.1467 155.246 31.8907C155.118 31.5707 155.182 31.2187 155.438 30.8347C155.566 30.5147 155.854 29.9707 156.302 29.2027C156.814 28.3707 157.358 27.5387 157.934 26.7067C158.574 25.8107 159.182 25.0427 159.758 24.4027C160.398 23.6987 160.91 23.3467 161.294 23.3467C161.678 23.4107 161.87 23.6347 161.87 24.0187C161.87 24.2107 161.806 24.3707 161.678 24.4987C161.614 24.5627 161.422 24.7547 161.102 25.0747C160.846 25.3307 160.43 25.8107 159.854 26.5147C159.342 27.2187 158.638 28.2427 157.742 29.5867ZM201.424 5.29869C202.448 6.1307 202.576 7.4427 201.808 9.2347C201.04 10.9627 199.888 12.8187 198.352 14.8027C196.816 16.7867 195.152 18.6747 193.36 20.4667C191.632 22.1947 190.256 23.5067 189.232 24.4027C188.72 24.8507 187.92 25.5227 186.832 26.4187C185.744 27.3147 184.528 28.3067 183.184 29.3947C181.84 30.4827 180.4 31.6027 178.864 32.7547C177.392 33.8427 175.952 34.8667 174.544 35.8267C173.2 36.7227 171.984 37.4587 170.896 38.0347C169.808 38.6107 169.008 38.8987 168.496 38.8987C168.432 38.8987 168.368 38.8987 168.304 38.8987C168.304 38.8347 168.272 38.8027 168.208 38.8027C168.08 38.8027 167.952 38.9947 167.824 39.3787C167.696 39.7627 167.472 40.6587 167.152 42.0667C166.896 43.4107 166.512 45.4267 166 48.1147C165.424 50.7387 164.688 54.3227 163.792 58.8667C163.472 60.3387 163.216 61.7147 163.024 62.9947C162.768 64.2107 162.64 64.8827 162.64 65.0107C162.64 65.0747 162.992 64.6907 163.696 63.8587C164.4 63.0267 165.712 61.5867 167.632 59.5387C169.552 57.4907 172.176 54.7707 175.504 51.3787C178.832 47.9227 183.12 43.6347 188.368 38.5147C188.752 38.5147 189.072 38.6427 189.328 38.8987C189.648 39.0907 189.616 39.3787 189.232 39.7627C184.56 44.4347 180.304 48.7227 176.464 52.6267C174.864 54.2907 173.232 55.9867 171.568 57.7147C169.968 59.3787 168.496 60.9467 167.152 62.4187C165.808 63.8907 164.656 65.2027 163.696 66.3547C162.736 67.5067 162.096 68.3707 161.776 68.9467C161.648 69.1387 161.52 69.5547 161.392 70.1947C161.2 70.8987 160.976 71.7307 160.72 72.6907C160.4 73.7147 160.016 74.8347 159.568 76.0507C159.056 77.3307 158.48 78.6427 157.84 79.9867C157.584 80.4987 157.264 81.1067 156.88 81.8107C156.496 82.5147 156.048 83.1867 155.536 83.8267C155.024 84.5307 154.512 85.1067 154 85.5547C153.424 86.0667 152.848 86.3227 152.272 86.3227C152.144 86.3227 152.08 86.2907 152.08 86.2267C152.016 86.2267 151.92 86.2267 151.792 86.2267C151.152 86.0347 150.832 85.5547 150.832 84.7867C150.832 84.0827 150.992 83.2827 151.312 82.3867C151.632 81.4907 152.048 80.5947 152.56 79.6987C153.008 78.8027 153.392 78.0667 153.712 77.4907C154.864 75.5067 155.824 73.9707 156.592 72.8827C157.296 71.8587 157.872 71.0587 158.32 70.4827C158.704 69.9707 159.024 69.5867 159.28 69.3307C159.472 69.0747 159.632 68.7867 159.76 68.4667C159.888 68.2107 160.048 67.7947 160.24 67.2187C160.368 66.5787 160.56 65.6187 160.816 64.3387C161.904 59.1547 162.896 54.0987 163.792 49.1707C164.624 44.2427 165.84 39.5067 167.44 34.9627C169.104 30.4187 171.44 26.0667 174.448 21.9067C177.456 17.6827 181.68 13.7147 187.12 10.0027C187.76 9.5547 188.56 9.04269 189.52 8.46669C190.544 7.82669 191.632 7.25069 192.784 6.73869C193.936 6.16269 195.088 5.68269 196.24 5.29869C197.392 4.9147 198.416 4.7227 199.312 4.7227C200.272 4.7227 200.976 4.9147 201.424 5.29869ZM192.784 18.9307C193.488 18.2267 194.448 17.1707 195.664 15.7627C196.88 14.3547 197.936 12.9467 198.832 11.5387C199.792 10.1307 200.4 8.91469 200.656 7.8907C200.912 6.80269 200.464 6.25869 199.312 6.25869C198.928 6.25869 198.608 6.29069 198.352 6.35469C196.816 6.67469 195.088 7.31469 193.168 8.2747C191.312 9.2347 189.36 10.4507 187.312 11.9227C185.328 13.3307 183.344 14.9947 181.36 16.9147C179.44 18.7707 177.648 20.7547 175.984 22.8667C174.128 25.2987 172.656 27.6667 171.568 29.9707C170.48 32.2107 169.52 34.5467 168.688 36.9787C168.56 37.2987 168.56 37.4587 168.688 37.4587C168.624 37.4587 168.976 37.2987 169.744 36.9787C170.896 36.3387 172.4 35.3787 174.256 34.0987C176.176 32.8187 178.192 31.3467 180.304 29.6827C182.48 28.0187 184.656 26.2587 186.832 24.4027C189.008 22.5467 190.992 20.7227 192.784 18.9307ZM152.848 83.3467C152.656 84.0507 152.592 84.4027 152.656 84.4027C152.912 84.4027 153.392 83.8907 154.096 82.8667C154.736 81.8427 155.408 80.6587 156.112 79.3147C156.752 78.0347 157.328 76.7867 157.84 75.5707C158.352 74.3547 158.608 73.5547 158.608 73.1707C158.608 73.1067 158.384 73.4267 157.936 74.1307C157.424 74.8347 156.848 75.6987 156.208 76.7227C155.504 77.8107 154.832 78.9307 154.192 80.0827C153.552 81.2987 153.104 82.3867 152.848 83.3467ZM219.54 33.3307C218.58 34.4827 217.844 35.3147 217.332 35.8267C216.884 36.2747 216.532 36.6587 216.276 36.9787C216.02 37.2987 215.796 37.6187 215.604 37.9387C215.412 38.2587 215.124 38.8667 214.74 39.7627C214.484 40.2747 214.132 40.9467 213.684 41.7787C213.236 42.6107 212.788 43.5707 212.34 44.6587C212.404 44.6587 212.724 44.5627 213.3 44.3707C213.812 44.1787 214.484 43.9547 215.316 43.6987C216.148 43.3787 217.076 43.0587 218.1 42.7387C219.188 42.3547 220.244 41.9707 221.268 41.5867C223.828 40.6907 226.676 39.6667 229.812 38.5147C230.452 38.7067 230.74 38.9947 230.676 39.3787C230.676 39.6987 230.484 39.9227 230.1 40.0507C230.036 40.0507 229.716 40.1787 229.14 40.4347C228.628 40.6267 227.956 40.8827 227.124 41.2027C226.292 41.4587 225.364 41.8107 224.34 42.2587C223.316 42.6427 222.26 43.0267 221.172 43.4107C218.676 44.3707 215.86 45.4267 212.724 46.5787C213.236 47.2187 213.3 48.3067 212.916 49.8427C212.468 51.3147 211.828 52.9467 210.996 54.7387C210.1 56.4667 209.172 58.1947 208.212 59.9227C207.188 61.6507 206.356 63.0907 205.716 64.2427C204.436 66.4187 203.412 67.5067 202.644 67.5067C202.516 67.5067 202.324 67.4427 202.068 67.3147C201.62 67.0587 201.492 66.3867 201.684 65.2987C201.812 64.6587 202.26 63.3467 203.028 61.3627C203.796 59.3147 204.82 56.8507 206.1 53.9707C207.316 51.0267 208.788 47.7947 210.516 44.2747C212.18 40.6907 214.004 37.0427 215.988 33.3307C217.972 29.6187 220.084 25.9707 222.324 22.3867C224.564 18.7387 226.868 15.4107 229.236 12.4027C229.428 12.1467 229.748 11.7307 230.196 11.1547C230.708 10.5147 231.252 9.90669 231.828 9.33069C232.404 8.69069 232.948 8.14669 233.46 7.69869C234.036 7.25069 234.516 7.0267 234.9 7.0267C235.476 7.0267 235.796 7.21869 235.86 7.60269C235.988 8.0507 235.86 8.69069 235.476 9.52269C234.708 11.1867 233.652 13.1067 232.308 15.2827C231.028 17.4587 229.62 19.6667 228.084 21.9067C226.612 24.0827 225.108 26.1947 223.572 28.2427C222.036 30.2267 220.692 31.9227 219.54 33.3307ZM223.956 23.0587C223.508 23.7627 222.996 24.5947 222.42 25.5547C221.844 26.5147 221.3 27.4107 220.788 28.2427C220.34 29.0747 219.956 29.7787 219.636 30.3547C219.316 30.9307 219.188 31.2187 219.252 31.2187L221.172 28.8187C222.9 26.6427 224.468 24.4987 225.876 22.3867C227.348 20.2107 228.628 18.2587 229.716 16.5307C230.804 14.8027 231.636 13.3947 232.212 12.3067C232.852 11.2187 233.172 10.6427 233.172 10.5787C233.172 10.5147 232.916 10.8027 232.404 11.4427C231.892 12.0187 231.188 12.8507 230.292 13.9387C229.46 15.0267 228.468 16.3707 227.316 17.9707C226.228 19.5067 225.108 21.2027 223.956 23.0587ZM203.892 64.0507C203.892 64.1147 204.084 63.8587 204.468 63.2827C204.852 62.7067 205.332 61.9067 205.908 60.8827C206.42 59.8587 207.028 58.7387 207.732 57.5227C208.372 56.2427 208.98 54.9947 209.556 53.7787C210.132 52.5627 210.612 51.4747 210.996 50.5147C211.38 49.4907 211.572 48.7547 211.572 48.3067C211.572 47.9867 211.572 47.8267 211.572 47.8267C211.508 47.7627 211.348 47.5707 211.092 47.2507C210.964 47.4427 210.708 47.9867 210.324 48.8827C209.94 49.7787 209.492 50.8347 208.98 52.0507C208.468 53.2027 207.924 54.4507 207.348 55.7947C206.708 57.1387 206.132 58.3867 205.62 59.5387C205.108 60.6907 204.692 61.6827 204.372 62.5147C204.052 63.3467 203.892 63.8587 203.892 64.0507ZM245.256 35.6347C245.96 35.6347 246.376 35.8587 246.504 36.3067C246.632 36.7547 246.536 37.2987 246.216 37.9387C246.088 38.1947 245.896 38.5147 245.64 38.8987C245.448 39.2187 245.096 39.6987 244.584 40.3387C244.136 40.9787 243.496 41.8427 242.664 42.9307C241.896 44.0187 240.872 45.4907 239.592 47.3467C237.8 49.9067 236.936 51.1867 237 51.1867C237.128 51.1867 238.28 50.0667 240.456 47.8267C242.696 45.5867 246.024 42.4827 250.44 38.5147C251.272 38.7067 251.624 38.9627 251.496 39.2827C251.432 39.5387 251.304 39.7627 251.112 39.9547L242.184 48.6907C240.712 50.1627 239.464 51.3787 238.44 52.3387C237.416 53.2987 236.584 54.0667 235.944 54.6427C235.304 55.2187 234.792 55.6347 234.408 55.8907C234.024 56.1467 233.704 56.2747 233.448 56.2747C233.192 56.2747 232.968 56.1787 232.776 55.9867C232.328 55.5387 232.424 54.7387 233.064 53.5867C233.704 52.4347 235.048 50.3867 237.096 47.4427C238.44 45.4587 239.56 43.8587 240.456 42.6427C241.416 41.3627 242.152 40.3707 242.664 39.6667C243.176 38.8987 243.528 38.3867 243.72 38.1307C243.912 37.8747 243.976 37.7467 243.912 37.7467C243.848 37.7467 243.56 37.8427 243.048 38.0347C242.6 38.1627 242.12 38.3227 241.608 38.5147C240.392 38.8987 239.272 39.1547 238.248 39.2827C237.224 39.4107 236.072 39.4747 234.792 39.4747C234.408 39.4747 234.056 39.5707 233.736 39.7627C233.416 39.9547 233.064 40.0507 232.68 40.0507C232.232 40.0507 232.008 39.8267 232.008 39.3787C232.072 38.9947 232.232 38.7707 232.488 38.7067C232.744 38.6427 232.808 38.5147 232.68 38.3227C232.552 37.7467 232.616 37.1707 232.872 36.5947C233.064 36.2747 233.384 35.9227 233.832 35.5387C234.28 35.0907 234.792 34.7067 235.368 34.3867C235.944 34.0027 236.52 33.6827 237.096 33.4267C237.736 33.1707 238.28 33.0427 238.728 33.0427C239.496 33.0427 239.88 33.4267 239.88 34.1947C239.88 34.7707 239.528 35.4107 238.824 36.1147C238.12 36.8187 237.544 37.3307 237.096 37.6507C237.928 37.5227 238.984 37.2987 240.264 36.9787C241.544 36.6587 242.92 36.2427 244.392 35.7307C244.648 35.6667 244.936 35.6347 245.256 35.6347ZM236.712 35.6347C236.2 35.9547 235.688 36.3387 235.176 36.7867C234.664 37.2347 234.472 37.4587 234.6 37.4587C234.664 37.4587 234.92 37.2987 235.368 36.9787C235.88 36.5947 236.296 36.2427 236.616 35.9227C236.808 35.7307 236.904 35.6027 236.904 35.5387L237 35.4427L236.904 35.5387C236.84 35.5387 236.776 35.5707 236.712 35.6347ZM249.151 43.4107C249.535 42.8347 250.111 42.0987 250.879 41.2027C251.583 40.2427 252.383 39.3467 253.279 38.5147C254.239 37.6187 255.167 36.8507 256.063 36.2107C257.023 35.5707 257.855 35.2507 258.559 35.2507C259.263 35.2507 259.615 35.6027 259.615 36.3067C259.615 36.6907 259.423 37.1067 259.039 37.5547C258.655 37.9387 258.175 38.3547 257.599 38.8027C257.087 39.1867 256.511 39.5387 255.871 39.8587C255.295 40.1147 254.783 40.3067 254.335 40.4347C254.015 40.4987 253.599 40.8187 253.087 41.3947C252.511 41.9067 251.967 42.5147 251.455 43.2187C250.943 43.8587 250.527 44.4987 250.207 45.1387C249.887 45.7787 249.823 46.1947 250.015 46.3867C250.079 46.3867 250.175 46.4187 250.303 46.4827C250.431 46.4827 250.623 46.4827 250.879 46.4827C251.519 46.4827 252.159 46.4187 252.799 46.2907C254.015 46.0347 255.551 45.5867 257.407 44.9467C259.327 44.3067 261.247 43.6027 263.167 42.8347C265.151 42.0027 267.039 41.2027 268.831 40.4347C270.687 39.6667 272.191 39.0267 273.343 38.5147C273.855 38.6427 274.111 38.8987 274.111 39.2827C274.111 39.6667 273.919 39.9547 273.535 40.1467C272.319 40.7867 270.655 41.5867 268.543 42.5467C266.431 43.4427 264.223 44.3387 261.919 45.2347C259.679 46.0667 257.535 46.8027 255.487 47.4427C253.439 48.0187 251.871 48.3067 250.783 48.3067C250.463 48.3067 250.047 48.2427 249.535 48.1147C248.575 47.7947 248.127 47.1227 248.191 46.0987C248.191 45.0747 248.511 44.1787 249.151 43.4107ZM272.093 43.4107C272.477 42.8347 273.053 42.0987 273.821 41.2027C274.525 40.2427 275.325 39.3467 276.221 38.5147C277.181 37.6187 278.109 36.8507 279.005 36.2107C279.965 35.5707 280.797 35.2507 281.501 35.2507C282.205 35.2507 282.557 35.6027 282.557 36.3067C282.557 36.6907 282.365 37.1067 281.981 37.5547C281.597 37.9387 281.117 38.3547 280.541 38.8027C280.029 39.1867 279.453 39.5387 278.813 39.8587C278.237 40.1147 277.725 40.3067 277.277 40.4347C276.957 40.4987 276.541 40.8187 276.029 41.3947C275.453 41.9067 274.909 42.5147 274.397 43.2187C273.885 43.8587 273.469 44.4987 273.149 45.1387C272.829 45.7787 272.765 46.1947 272.957 46.3867C273.021 46.3867 273.117 46.4187 273.245 46.4827C273.373 46.4827 273.565 46.4827 273.821 46.4827C274.461 46.4827 275.101 46.4187 275.741 46.2907C276.957 46.0347 278.493 45.5867 280.349 44.9467C282.269 44.3067 284.189 43.6027 286.109 42.8347C288.093 42.0027 289.981 41.2027 291.773 40.4347C293.629 39.6667 295.133 39.0267 296.285 38.5147C296.797 38.6427 297.053 38.8987 297.053 39.2827C297.053 39.6667 296.861 39.9547 296.477 40.1467C295.261 40.7867 293.597 41.5867 291.485 42.5467C289.373 43.4427 287.165 44.3387 284.861 45.2347C282.621 46.0667 280.477 46.8027 278.429 47.4427C276.381 48.0187 274.813 48.3067 273.725 48.3067C273.405 48.3067 272.989 48.2427 272.477 48.1147C271.517 47.7947 271.069 47.1227 271.133 46.0987C271.133 45.0747 271.453 44.1787 272.093 43.4107ZM302.332 36.4987C302.588 36.4987 302.748 36.5307 302.812 36.5947C303.132 36.7227 303.26 36.9467 303.196 37.2667C303.196 37.5867 303.26 37.7467 303.388 37.7467C303.452 37.7467 303.708 37.4907 304.156 36.9787C304.604 36.4027 305.5 35.2827 306.844 33.6187C308.38 31.7627 309.532 30.3547 310.3 29.3947C311.132 28.3707 311.74 27.6027 312.124 27.0907C312.572 26.5787 312.86 26.1947 312.988 25.9387C313.18 25.6827 313.404 25.3307 313.66 24.8827C314.108 24.1147 314.78 23.0267 315.676 21.6187C316.636 20.2107 317.628 18.7707 318.652 17.2987C319.74 15.8267 320.796 14.4827 321.82 13.2667C322.844 12.0507 323.676 11.2507 324.316 10.8667C324.572 10.7387 324.764 10.6747 324.892 10.6747C325.212 10.6747 325.436 10.8347 325.564 11.1547C325.756 11.4107 325.788 11.7307 325.66 12.1147C325.404 12.7547 324.7 13.8427 323.548 15.3787C322.46 16.8507 321.244 18.4507 319.9 20.1787C318.556 21.9067 317.276 23.5707 316.06 25.1707C314.844 26.7707 313.98 28.0187 313.468 28.9147C312.188 31.2827 310.972 33.6187 309.82 35.9227C308.732 38.2267 307.772 40.3067 306.94 42.1627C306.172 43.9547 305.564 45.4587 305.116 46.6747C304.668 47.8907 304.444 48.6267 304.444 48.8827C304.444 49.0107 304.572 49.0107 304.828 48.8827C305.596 48.4347 306.492 47.7627 307.516 46.8667C308.604 45.9707 309.692 45.0107 310.78 43.9867C311.868 42.9627 312.924 41.9707 313.948 41.0107C315.036 39.9867 315.9 39.1547 316.54 38.5147C317.244 38.6427 317.596 38.8667 317.596 39.1867C317.596 39.5067 317.532 39.7307 317.404 39.8587C316.956 40.3707 316.124 41.2347 314.908 42.4507C313.692 43.6027 312.38 44.8187 310.972 46.0987C309.628 47.3147 308.316 48.4027 307.036 49.3627C305.756 50.3227 304.764 50.8027 304.06 50.8027C303.484 50.8027 303.1 50.5467 302.908 50.0347C302.716 49.5227 302.716 48.9147 302.908 48.2107C303.036 47.5707 303.292 46.7707 303.676 45.8107C304.06 44.7867 304.476 43.7307 304.924 42.6427C305.436 41.4907 305.916 40.3707 306.364 39.2827C306.876 38.1307 307.324 37.1387 307.708 36.3067C308.156 35.4107 308.476 34.7067 308.668 34.1947C308.924 33.6827 309.02 33.4587 308.956 33.5227C308.572 33.9707 307.804 34.9307 306.652 36.4027C305.5 37.8107 304.22 39.3467 302.812 41.0107C301.468 42.6107 300.124 44.1147 298.78 45.5227C297.436 46.9307 296.38 47.8267 295.612 48.2107C295.228 48.4027 294.908 48.4987 294.652 48.4987C294.332 48.4987 294.076 48.3707 293.884 48.1147C293.628 47.8587 293.564 47.4747 293.692 46.9627C293.756 46.3867 294.012 45.6827 294.46 44.8507C294.844 43.9547 295.484 42.9307 296.38 41.7787C296.636 41.3947 297.02 40.9147 297.532 40.3387C297.98 39.7627 298.492 39.1867 299.068 38.6107C299.644 38.0347 300.22 37.5547 300.796 37.1707C301.372 36.7227 301.884 36.4987 302.332 36.4987ZM301.852 39.0907C301.66 38.9627 301.564 38.8667 301.564 38.8027C301.628 38.6747 301.596 38.6107 301.468 38.6107C301.404 38.6107 300.828 39.1547 299.74 40.2427C298.716 41.3307 297.66 42.7067 296.572 44.3707C296.316 44.7547 296.092 45.1387 295.9 45.5227C295.772 45.7147 295.644 45.9387 295.516 46.1947C295.644 46.1947 296.188 45.7147 297.148 44.7547C298.108 43.7947 299.388 42.3867 300.988 40.5307C301.692 39.8267 302.044 39.4427 302.044 39.3787C302.044 39.3147 301.98 39.2187 301.852 39.0907ZM324.572 44.9467C324.316 44.9467 324.092 44.8507 323.9 44.6587C323.772 44.4027 323.708 44.1787 323.708 43.9867C323.772 43.7307 324.028 43.3147 324.476 42.7387C324.988 41.9707 325.372 41.3627 325.628 40.9147C325.948 40.4667 326.172 40.1147 326.3 39.8587C326.492 39.6027 326.62 39.4107 326.684 39.2827C326.684 39.2827 326.524 39.3467 326.204 39.4747C325.948 39.6027 325.628 39.7307 325.244 39.8587C324.924 39.9867 324.572 40.1467 324.188 40.3387C323.868 40.4667 323.612 40.5627 323.42 40.6267C323.1 40.7547 322.94 40.9467 322.94 41.2027C322.812 42.6747 322.172 43.8587 321.02 44.7547C319.932 45.6507 318.908 46.0987 317.948 46.0987C317.5 46.0987 317.116 45.9707 316.796 45.7147C316.476 45.4587 316.284 45.0747 316.22 44.5627C316.092 43.8587 316.284 43.0267 316.796 42.0667C317.244 41.1067 317.852 40.1787 318.62 39.2827C319.324 38.3867 320.092 37.6507 320.924 37.0747C321.756 36.4347 322.46 36.1147 323.036 36.1147C323.228 36.1147 323.452 36.1787 323.708 36.3067C324.22 36.6907 324.38 37.0747 324.188 37.4587C324.06 37.7787 323.836 37.9067 323.516 37.8427C323.388 37.8427 323.292 37.8427 323.228 37.8427C323.164 37.7787 323.1 37.7467 323.036 37.7467C322.908 37.7467 322.62 37.9067 322.172 38.2267C321.532 38.6747 320.924 39.2507 320.348 39.9547C319.772 40.6587 319.292 41.3627 318.908 42.0667C318.46 42.7067 318.172 43.2507 318.044 43.6987C317.916 44.1467 317.948 44.3707 318.14 44.3707C318.332 44.3707 318.588 44.3067 318.908 44.1787C319.228 43.9867 319.548 43.7627 319.868 43.5067C320.188 43.1867 320.476 42.8347 320.732 42.4507C320.988 42.0027 321.148 41.4907 321.212 40.9147C321.276 40.2747 321.436 39.8587 321.692 39.6667C322.012 39.4107 322.716 39.0267 323.804 38.5147C324.956 38.0667 325.916 37.6827 326.684 37.3627C327.452 37.0427 328.06 36.8827 328.508 36.8827C329.084 36.8827 329.372 37.1707 329.372 37.7467C329.436 38.1307 329.372 38.4827 329.18 38.8027C328.988 39.1227 328.924 39.2507 328.988 39.1867C329.052 39.1227 329.148 39.0907 329.276 39.0907C329.404 39.0267 329.628 38.9947 329.948 38.9947C330.204 38.9947 330.428 39.0587 330.62 39.1867C330.876 39.3147 331.004 39.6027 331.004 40.0507C331.004 40.3067 331.036 40.4347 331.1 40.4347C331.1 40.4347 331.324 40.2747 331.772 39.9547C332.22 39.6347 332.796 39.2507 333.5 38.8027C334.268 38.3547 334.908 38.1307 335.42 38.1307C335.868 38.1307 336.156 38.3227 336.284 38.7067C336.476 39.0267 336.444 39.4427 336.188 39.9547C335.676 41.2347 335.164 42.2587 334.652 43.0267C334.204 43.7307 334.012 44.0827 334.076 44.0827C334.204 44.0827 334.748 43.6347 335.708 42.7387C336.732 41.8427 338.524 40.4347 341.084 38.5147C341.724 38.6427 342.044 38.8667 342.044 39.1867C342.108 39.4427 341.98 39.7307 341.66 40.0507C339.228 42.0987 337.34 43.7307 335.996 44.9467C334.716 46.0987 333.724 46.6747 333.02 46.6747C332.764 46.6747 332.572 46.6427 332.444 46.5787C332.124 46.3867 331.932 46.0987 331.868 45.7147C331.868 45.2667 331.932 44.7867 332.06 44.2747C332.252 43.7627 332.476 43.2507 332.732 42.7387C332.988 42.2267 333.212 41.8107 333.404 41.4907C333.788 40.9147 333.948 40.6267 333.884 40.6267C333.948 40.6267 333.596 40.8507 332.828 41.2987C331.804 42.0027 331.036 42.6427 330.524 43.2187C330.012 43.7307 329.564 43.9867 329.18 43.9867C328.988 43.9867 328.796 43.8907 328.604 43.6987C328.284 43.3787 328.22 42.9627 328.412 42.4507C328.668 41.9387 328.796 41.6187 328.796 41.4907C328.796 41.3627 328.604 41.4907 328.22 41.8747C327.836 42.1947 327.388 42.5787 326.876 43.0267C326.428 43.4747 326.012 43.9227 325.628 44.3707C325.244 44.7547 324.988 44.9467 324.86 44.9467H324.572ZM377.927 38.5147C378.503 38.6427 378.823 38.8987 378.887 39.2827C378.951 39.6027 378.759 39.8907 378.311 40.1467C376.839 40.9147 375.431 41.7147 374.087 42.5467C372.743 43.3787 371.495 44.1467 370.343 44.8507C369.191 45.4907 368.135 46.0347 367.175 46.4827C366.279 46.9307 365.511 47.1547 364.871 47.1547H364.583C363.687 46.9627 363.303 46.3227 363.431 45.2347C363.495 44.1467 363.783 42.9947 364.295 41.7787C364.807 40.4987 365.383 39.3467 366.023 38.3227C366.727 37.2347 367.239 36.6267 367.559 36.4987C367.623 36.4987 367.655 36.4987 367.655 36.4987C367.719 36.4347 367.783 36.4027 367.847 36.4027C368.295 36.4027 368.519 36.6907 368.519 37.2667C368.519 37.3307 368.455 37.5547 368.327 37.9387C368.071 38.3227 367.911 38.7067 367.847 39.0907C367.847 39.4107 367.687 39.5707 367.367 39.5707C367.303 39.5707 367.111 39.8587 366.791 40.4347C366.535 40.9467 366.279 41.5547 366.023 42.2587C365.703 42.9627 365.447 43.6347 365.255 44.2747C365.063 44.8507 365.031 45.2027 365.159 45.3307C365.223 45.3947 365.735 45.2027 366.695 44.7547C367.719 44.2427 368.871 43.6347 370.151 42.9307C371.495 42.1627 372.871 41.3947 374.279 40.6267C375.751 39.7947 376.967 39.0907 377.927 38.5147ZM372.167 29.5867C371.591 30.4827 371.207 31.1227 371.015 31.5067C370.887 31.8267 370.759 32.0507 370.631 32.1787C370.567 32.1787 370.503 32.2107 370.439 32.2747C370.439 32.2747 370.407 32.2747 370.343 32.2747C370.087 32.2747 369.863 32.1467 369.671 31.8907C369.543 31.5707 369.607 31.2187 369.863 30.8347C369.991 30.5147 370.279 29.9707 370.727 29.2027C371.239 28.3707 371.783 27.5387 372.359 26.7067C372.999 25.8107 373.607 25.0427 374.183 24.4027C374.823 23.6987 375.335 23.3467 375.719 23.3467C376.103 23.4107 376.295 23.6347 376.295 24.0187C376.295 24.2107 376.231 24.3707 376.103 24.4987C376.039 24.5627 375.847 24.7547 375.527 25.0747C375.271 25.3307 374.855 25.8107 374.279 26.5147C373.767 27.2187 373.063 28.2427 372.167 29.5867ZM380.809 44.4667C379.913 45.4907 379.305 46.0667 378.985 46.1947C378.857 46.2587 378.729 46.2907 378.601 46.2907C377.897 46.2907 377.609 45.9067 377.737 45.1387C377.737 44.9467 377.961 44.4027 378.409 43.5067C378.793 42.6107 379.241 41.6187 379.753 40.5307C380.265 39.4427 380.777 38.4507 381.289 37.5547C381.865 36.5947 382.281 36.0187 382.537 35.8267C382.665 35.7627 382.857 35.7307 383.113 35.7307C383.369 35.7307 383.529 35.7947 383.593 35.9227C383.785 36.1147 383.849 36.4027 383.785 36.7867C383.785 37.1707 383.657 37.4267 383.401 37.5547C383.209 37.6187 382.921 38.0027 382.537 38.7067C381.897 39.8587 381.449 40.6587 381.193 41.1067C381.001 41.5547 380.937 41.7787 381.001 41.7787C381.065 41.7787 381.225 41.6507 381.481 41.3947C381.737 41.1387 382.025 40.8507 382.345 40.5307C382.729 40.2107 383.145 39.9227 383.593 39.6667C384.041 39.4107 384.457 39.2827 384.841 39.2827H385.129C385.833 39.4107 386.217 39.7947 386.281 40.4347C386.409 41.0747 386.377 41.7787 386.185 42.5467C386.057 43.2507 385.865 43.9227 385.609 44.5627C385.417 45.1387 385.353 45.4587 385.417 45.5227C385.545 45.5867 386.345 44.9467 387.817 43.6027C389.289 42.2587 391.305 40.5627 393.865 38.5147C394.761 38.6427 395.177 38.8987 395.113 39.2827C395.049 39.6027 394.921 39.8267 394.729 39.9547C393.577 40.9147 392.489 41.8747 391.465 42.8347C390.441 43.7947 389.481 44.6587 388.585 45.4267C387.753 46.1307 386.985 46.7387 386.281 47.2507C385.641 47.6987 385.097 47.9227 384.649 47.9227C384.201 47.9227 383.881 47.6667 383.689 47.1547C383.369 46.6427 383.433 45.6827 383.881 44.2747C384.457 42.2267 384.681 41.2027 384.553 41.2027C384.489 41.2027 384.297 41.3307 383.977 41.5867C383.721 41.7787 383.401 42.0667 383.017 42.4507C382.633 42.7707 382.217 43.1227 381.769 43.5067C381.385 43.8267 381.065 44.1467 380.809 44.4667ZM431.203 37.4587C432.099 37.5867 432.419 38.1627 432.163 39.1867C431.907 40.1467 431.587 41.2347 431.203 42.4507C431.075 42.7707 430.979 43.0587 430.915 43.3147C430.915 43.5067 430.883 43.6667 430.819 43.7947C430.755 43.9867 430.723 44.1467 430.723 44.2747C430.851 44.2747 431.459 43.7947 432.547 42.8347C433.635 41.8747 435.363 40.4347 437.731 38.5147C438.307 38.6427 438.659 38.8667 438.787 39.1867C438.979 39.4427 438.851 39.7307 438.403 40.0507C435.523 42.4187 433.539 44.1147 432.451 45.1387C431.363 46.0987 430.531 46.5787 429.955 46.5787C429.827 46.5787 429.635 46.5147 429.379 46.3867C428.931 46.0667 428.739 45.5547 428.803 44.8507C428.867 44.1467 428.995 43.4427 429.187 42.7387C429.443 41.9707 429.667 41.3307 429.859 40.8187C430.115 40.2427 430.147 39.9867 429.955 40.0507C429.891 40.1147 429.667 40.3067 429.283 40.6267C428.963 40.9467 428.579 41.2987 428.131 41.6827C427.747 42.0667 427.331 42.4827 426.883 42.9307C426.435 43.3147 426.115 43.6347 425.923 43.8907C425.091 44.7867 424.483 45.2347 424.099 45.2347C424.035 45.2347 423.971 45.2347 423.907 45.2347C423.907 45.1707 423.875 45.1387 423.811 45.1387C423.235 44.8827 423.011 44.4667 423.139 43.8907C423.331 43.3147 423.555 42.6747 423.811 41.9707C424.067 41.5227 424.131 41.2987 424.003 41.2987C423.875 41.2987 423.203 41.8747 421.987 43.0267C418.915 45.8427 416.835 48.0187 415.747 49.5547C414.595 51.0267 413.763 51.7627 413.251 51.7627C413.123 51.7627 412.931 51.6347 412.675 51.3787C412.547 51.2507 412.483 51.0907 412.483 50.8987C412.483 50.7067 412.579 50.4187 412.771 50.0347C412.963 49.5867 413.251 48.9787 413.635 48.2107C414.019 47.4427 414.563 46.3867 415.267 45.0427C415.651 44.2107 416.099 43.3147 416.611 42.3547C417.123 41.3947 417.635 40.4987 418.147 39.6667C418.659 38.8347 419.075 38.0987 419.395 37.4587C419.779 36.8187 420.035 36.4347 420.163 36.3067C420.355 36.1147 420.547 36.0187 420.739 36.0187C420.803 36.0187 420.963 36.0827 421.219 36.2107C421.411 36.4027 421.475 36.6267 421.411 36.8827C421.411 37.0747 421.251 37.4267 420.931 37.9387C420.675 38.4507 420.259 39.1867 419.683 40.1467C419.107 41.1067 418.403 42.3867 417.571 43.9867C416.931 45.2027 416.643 45.8107 416.707 45.8107C416.707 45.8107 417.123 45.3947 417.955 44.5627C418.595 43.9227 419.267 43.2827 419.971 42.6427C420.675 41.9387 421.347 41.2987 421.987 40.7227C422.627 40.1467 423.203 39.6987 423.715 39.3787C424.291 38.9947 424.739 38.8027 425.059 38.8027C425.571 38.8027 425.891 38.9307 426.019 39.1867C426.147 39.4427 426.179 39.7307 426.115 40.0507C426.115 40.3707 426.083 40.6907 426.019 41.0107C425.955 41.2667 425.923 41.3947 425.923 41.3947C425.923 41.3947 426.147 41.2027 426.595 40.8187C427.043 40.3707 427.555 39.8907 428.131 39.3787C428.707 38.8667 429.283 38.4187 429.859 38.0347C430.435 37.5867 430.883 37.3947 431.203 37.4587ZM437.372 49.5547C436.476 49.2347 436.124 48.4667 436.316 47.2507C436.508 46.0347 436.956 44.7227 437.66 43.3147C438.364 41.8427 439.132 40.4987 439.964 39.2827C440.796 38.0667 441.404 37.3627 441.788 37.1707C441.98 37.0427 442.204 36.9787 442.46 36.9787C442.78 36.9787 443.004 37.1067 443.132 37.3627C443.26 37.6187 443.292 37.9387 443.228 38.3227C443.228 38.6427 443.132 38.9307 442.94 39.1867C442.812 39.4427 442.62 39.5707 442.364 39.5707C442.3 39.5707 442.236 39.5707 442.172 39.5707C442.172 39.5067 442.14 39.4747 442.076 39.4747C441.948 39.4107 441.852 39.4107 441.788 39.4747C441.788 39.4747 441.628 39.7307 441.308 40.2427C440.732 41.0107 440.22 41.8427 439.772 42.7387C439.324 43.5707 438.972 44.3707 438.716 45.1387C438.396 45.9067 438.172 46.5787 438.044 47.1547C437.916 47.6667 437.884 47.9547 437.948 48.0187C438.012 48.0187 438.268 47.9227 438.716 47.7307C439.1 47.4747 439.58 47.1547 440.156 46.7707C440.668 46.3867 441.148 45.9707 441.596 45.5227C442.108 45.0107 442.46 44.5307 442.652 44.0827C442.844 43.6347 442.908 43.2827 442.844 43.0267C442.78 42.7067 442.748 42.4507 442.748 42.2587C442.748 42.0667 442.844 41.8747 443.036 41.6827C443.292 41.4267 443.772 41.1707 444.476 40.9147C445.244 40.6587 446.332 40.3387 447.74 39.9547C449.148 39.5707 451.036 39.0907 453.404 38.5147C454.172 38.6427 454.492 38.9307 454.364 39.3787C454.236 39.7627 454.044 39.9867 453.788 40.0507C453.596 40.1147 452.988 40.2747 451.964 40.5307C450.94 40.7227 449.852 40.9787 448.7 41.2987C447.612 41.6187 446.62 41.9707 445.724 42.3547C444.892 42.6747 444.508 42.9307 444.572 43.1227C444.764 43.6987 444.604 44.3707 444.092 45.1387C443.644 45.8427 443.036 46.5467 442.268 47.2507C441.5 47.8907 440.7 48.4667 439.868 48.9787C439.036 49.4267 438.332 49.6507 437.756 49.6507C437.692 49.6507 437.628 49.6507 437.564 49.6507C437.5 49.5867 437.436 49.5547 437.372 49.5547ZM475.37 9.52269C475.306 9.65069 475.146 9.87469 474.89 10.1947C474.698 10.5147 474.506 10.7707 474.314 10.9627C474.25 11.0267 474.058 11.2827 473.738 11.7307C473.418 12.1787 473.098 12.6587 472.778 13.1707C472.458 13.6187 472.17 14.0667 471.914 14.5147C471.658 14.8987 471.53 15.0907 471.53 15.0907C477.162 15.0267 482.186 14.9627 486.602 14.8987C488.522 14.8347 490.41 14.8027 492.266 14.8027C494.122 14.7387 495.786 14.6747 497.258 14.6107C498.73 14.5467 499.946 14.4827 500.906 14.4187C501.866 14.3547 502.41 14.2907 502.538 14.2267C502.666 14.1627 502.826 14.1307 503.018 14.1307C503.466 14.1307 503.754 14.3547 503.882 14.8027C504.01 15.1867 503.786 15.4747 503.21 15.6667C503.018 15.7307 502.378 15.7947 501.29 15.8587C500.266 15.9227 498.954 15.9867 497.354 16.0507C495.818 16.1147 494.058 16.1787 492.074 16.2427C490.154 16.3067 488.202 16.3707 486.218 16.4347C481.482 16.5627 476.202 16.6907 470.378 16.8187C466.666 22.5787 463.466 28.0507 460.778 33.2347C458.154 38.3547 456.01 42.8667 454.346 46.7707C452.682 50.6107 451.53 53.6827 450.89 55.9867C450.25 58.2907 450.09 59.4427 450.41 59.4427C450.794 59.4427 451.434 59.1547 452.33 58.5787C453.226 57.9387 454.314 57.1387 455.594 56.1787C456.81 55.1547 458.122 54.0347 459.53 52.8187C461.002 51.5387 462.474 50.2587 463.946 48.9787C467.338 45.9067 471.082 42.4187 475.178 38.5147C475.882 38.6427 476.202 38.8987 476.138 39.2827C476.074 39.6027 475.85 39.9867 475.466 40.4347C475.402 40.4987 474.89 40.9787 473.93 41.8747C472.97 42.7707 471.754 43.9227 470.282 45.3307C468.81 46.7387 467.178 48.2747 465.386 49.9387C463.594 51.5387 461.834 53.1067 460.106 54.6427C458.378 56.1147 456.778 57.4267 455.306 58.5787C453.834 59.7307 452.682 60.4987 451.85 60.8827C451.53 61.0107 451.306 61.1067 451.178 61.1707C450.986 61.1707 450.73 61.2027 450.41 61.2667C449.002 61.2667 448.362 60.4987 448.49 58.9627C448.49 57.9387 448.938 56.1787 449.834 53.6827C450.666 51.1227 451.818 48.1467 453.29 44.7547C454.762 41.2987 456.522 37.5867 458.57 33.6187C460.682 29.5867 462.922 25.5867 465.29 21.6187C465.482 21.2987 465.738 20.8827 466.058 20.3707C466.442 19.7947 466.794 19.2827 467.114 18.8347C467.434 18.3227 467.69 17.9067 467.882 17.5867C468.074 17.2027 468.17 17.0107 468.17 17.0107C468.17 17.0747 467.178 17.1387 465.194 17.2027C459.754 17.5227 455.37 17.8427 452.042 18.1627C448.714 18.4827 446.186 18.6427 444.458 18.6427C442.218 18.6427 441.098 18.1947 441.098 17.2987C441.098 16.9787 441.354 16.5947 441.866 16.1467C442.314 15.6347 442.858 15.1547 443.498 14.7067C444.138 14.2587 444.778 13.8747 445.418 13.5547C445.994 13.2347 446.442 13.0747 446.762 13.0747C446.954 13.0747 447.114 13.1387 447.242 13.2667C447.69 13.7147 447.53 14.1627 446.762 14.6107C445.994 14.9947 444.938 15.6667 443.594 16.6267C443.402 16.7547 443.274 16.8507 443.21 16.9147C443.146 16.9147 443.178 16.9147 443.306 16.9147H444.17C444.17 16.9147 444.554 16.9147 445.322 16.9147C446.026 16.8507 446.986 16.7867 448.202 16.7227C449.418 16.5947 450.794 16.4987 452.33 16.4347C453.802 16.3067 455.306 16.1787 456.842 16.0507C460.49 15.8587 464.65 15.6027 469.322 15.2827C469.45 15.1547 469.866 14.5147 470.57 13.3627C471.338 12.2107 472.17 11.0587 473.066 9.90669C473.834 8.94669 474.378 8.46669 474.698 8.46669C474.762 8.46669 474.794 8.49869 474.794 8.56269C474.858 8.56269 474.922 8.56269 474.986 8.56269C475.434 8.81869 475.562 9.13869 475.37 9.52269ZM489.988 38.5147C490.564 38.6427 490.884 38.8987 490.948 39.2827C491.012 39.6027 490.82 39.8907 490.372 40.1467C488.9 40.9147 487.492 41.7147 486.148 42.5467C484.804 43.3787 483.556 44.1467 482.404 44.8507C481.252 45.4907 480.196 46.0347 479.236 46.4827C478.34 46.9307 477.572 47.1547 476.932 47.1547H476.644C475.748 46.9627 475.364 46.3227 475.492 45.2347C475.556 44.1467 475.844 42.9947 476.356 41.7787C476.868 40.4987 477.444 39.3467 478.084 38.3227C478.788 37.2347 479.3 36.6267 479.62 36.4987C479.684 36.4987 479.716 36.4987 479.716 36.4987C479.78 36.4347 479.844 36.4027 479.908 36.4027C480.356 36.4027 480.58 36.6907 480.58 37.2667C480.58 37.3307 480.516 37.5547 480.388 37.9387C480.132 38.3227 479.972 38.7067 479.908 39.0907C479.908 39.4107 479.748 39.5707 479.428 39.5707C479.364 39.5707 479.172 39.8587 478.852 40.4347C478.596 40.9467 478.34 41.5547 478.084 42.2587C477.764 42.9627 477.508 43.6347 477.316 44.2747C477.124 44.8507 477.092 45.2027 477.22 45.3307C477.284 45.3947 477.796 45.2027 478.756 44.7547C479.78 44.2427 480.932 43.6347 482.212 42.9307C483.556 42.1627 484.932 41.3947 486.34 40.6267C487.812 39.7947 489.028 39.0907 489.988 38.5147ZM484.228 29.5867C483.652 30.4827 483.268 31.1227 483.076 31.5067C482.948 31.8267 482.82 32.0507 482.692 32.1787C482.628 32.1787 482.564 32.2107 482.5 32.2747C482.5 32.2747 482.468 32.2747 482.404 32.2747C482.148 32.2747 481.924 32.1467 481.732 31.8907C481.604 31.5707 481.668 31.2187 481.924 30.8347C482.052 30.5147 482.34 29.9707 482.788 29.2027C483.3 28.3707 483.844 27.5387 484.42 26.7067C485.06 25.8107 485.668 25.0427 486.244 24.4027C486.884 23.6987 487.396 23.3467 487.78 23.3467C488.164 23.4107 488.356 23.6347 488.356 24.0187C488.356 24.2107 488.292 24.3707 488.164 24.4987C488.1 24.5627 487.908 24.7547 487.588 25.0747C487.332 25.3307 486.916 25.8107 486.34 26.5147C485.828 27.2187 485.124 28.2427 484.228 29.5867ZM506.79 41.3947C505.318 42.3547 504.23 43.1867 503.526 43.8907C502.822 44.5947 502.246 44.9467 501.798 44.9467C501.222 44.9467 500.934 44.6587 500.934 44.0827C500.934 43.8267 501.062 43.4427 501.318 42.9307C501.574 42.4187 501.862 41.9067 502.182 41.3947C502.566 40.8187 502.886 40.3067 503.142 39.8587C503.398 39.4107 503.526 39.1867 503.526 39.1867C503.398 39.1867 503.078 39.2827 502.566 39.4747C501.414 39.8587 500.55 40.1147 499.974 40.2427C499.462 40.3067 499.078 40.3707 498.822 40.4347C498.566 40.4987 498.406 40.5627 498.342 40.6267C498.342 40.6907 498.31 40.8187 498.246 41.0107C497.862 41.9067 497.126 42.7707 496.038 43.6027C495.014 44.4347 493.99 44.8507 492.966 44.8507C492.774 44.8507 492.486 44.7867 492.102 44.6587C491.654 44.4667 491.398 44.1787 491.334 43.7947C491.206 43.3467 491.206 42.8987 491.334 42.4507C491.462 41.9387 491.654 41.4267 491.91 40.9147C492.102 40.4027 492.326 39.9547 492.582 39.5707C492.838 39.2507 492.934 39.0587 492.87 38.9947C492.742 38.9307 492.742 38.7387 492.87 38.4187C492.934 38.2907 493.158 38.0347 493.542 37.6507C493.926 37.2667 494.214 37.0107 494.406 36.8827C494.47 36.8187 494.598 36.7867 494.79 36.7867C495.046 36.7867 495.238 36.8507 495.366 36.9787C495.75 37.2987 495.814 37.6827 495.558 38.1307C495.302 38.5147 495.014 38.8987 494.694 39.2827C494.63 39.4747 494.47 39.7947 494.214 40.2427C493.958 40.6267 493.702 41.0427 493.446 41.4907C493.254 41.9387 493.094 42.3547 492.966 42.7387C492.902 43.0587 492.966 43.2187 493.158 43.2187C493.286 43.2187 493.51 43.1547 493.83 43.0267C494.214 42.8347 494.534 42.6747 494.79 42.5467C495.302 42.2267 495.75 41.8107 496.134 41.2987C496.582 40.7227 496.742 40.3067 496.614 40.0507C496.486 39.7307 496.486 39.4427 496.614 39.1867C496.742 38.8667 496.966 38.7067 497.286 38.7067C498.502 38.7067 499.718 38.5467 500.934 38.2267C502.214 37.9067 503.398 37.4907 504.486 36.9787C504.87 36.8507 505.158 36.7867 505.35 36.7867C505.798 36.7867 506.086 37.0427 506.214 37.5547C506.278 37.7467 506.246 37.9707 506.118 38.2267C506.054 38.4827 505.83 38.9307 505.446 39.5707C505.254 39.9547 505.094 40.2107 504.966 40.3387L504.774 40.6267C504.838 40.6267 504.998 40.5307 505.254 40.3387C505.766 39.9547 506.342 39.5707 506.982 39.1867C507.686 38.8027 508.326 38.6107 508.902 38.6107C509.542 38.6107 509.926 38.8667 510.054 39.3787C510.246 39.8267 510.342 40.3067 510.342 40.8187C510.406 41.0107 510.438 41.3307 510.438 41.7787C510.438 41.9067 510.438 42.0347 510.438 42.1627C510.566 42.2907 511.238 42.0347 512.454 41.3947C513.67 40.7547 515.558 39.7947 518.118 38.5147C518.63 38.6427 518.95 38.8667 519.078 39.1867C519.206 39.5067 519.11 39.7627 518.79 39.9547C516.486 41.1707 514.694 42.1627 513.414 42.9307C512.198 43.6987 511.206 44.0827 510.438 44.0827C510.31 44.0827 510.214 44.0827 510.15 44.0827C510.15 44.0187 510.086 43.9867 509.958 43.9867C509.51 43.9227 509.19 43.7307 508.998 43.4107C508.806 43.0267 508.678 42.6427 508.614 42.2587C508.55 41.8107 508.518 41.4267 508.518 41.1067C508.582 40.7867 508.582 40.5947 508.518 40.5307C508.454 40.4667 508.262 40.5307 507.942 40.7227C507.622 40.8507 507.238 41.0747 506.79 41.3947Z"
        fill="#EAFFB1" />
</svg>