<svg width="91" height="94" viewBox="0 0 91 94" fill="none" xmlns="http://www.w3.org/2000/svg">
    <path
        d="M1.17616 43.1508H1.65116L2.46116 45.7608H2.48616L3.32116 43.1508H3.65116L4.48616 45.7608H4.51616L5.32616 43.1508H5.77616L4.72616 46.4158H4.28116L3.49116 43.9658H3.46116L2.67116 46.4158H2.22616L1.17616 43.1508Z"
        fill="#000000" />
    <path d="M47.4677 0.735H47.9027V4H47.5077L45.4327 1.495H45.4277V4H44.9927V0.735H45.3877L47.4627 3.24H47.4677V0.735Z"
        fill="#000000" />
    <path
        d="M89.0401 44.5058V44.8908H87.7201V46.0308H90.0251V46.4158H87.2851V43.1508H89.9101V43.5358H87.7201V44.5058H89.0401Z"
        fill="#000000" />
    <path
        d="M48.1011 87.2616L47.8411 87.5616C47.7211 87.455 47.5561 87.3616 47.3461 87.2816C47.1394 87.1983 46.9011 87.1566 46.6311 87.1566C46.3944 87.1566 46.1927 87.2033 46.0261 87.2966C45.8627 87.3866 45.7811 87.5266 45.7811 87.7166C45.7811 87.7833 45.7927 87.8433 45.8161 87.8966C45.8427 87.9466 45.8861 87.9883 45.9461 88.0216C46.0094 88.0516 46.0644 88.0766 46.1111 88.0966C46.1577 88.1166 46.2344 88.1333 46.3411 88.1466C46.4511 88.16 46.5311 88.1683 46.5811 88.1716C46.6311 88.175 46.7211 88.18 46.8511 88.1866C46.9711 88.1933 47.0594 88.2 47.1161 88.2066C47.1761 88.2133 47.2677 88.2266 47.3911 88.2466C47.5144 88.2633 47.6111 88.285 47.6811 88.3116C47.7511 88.335 47.8327 88.3716 47.9261 88.4216C48.0227 88.4683 48.0961 88.5233 48.1461 88.5866C48.1994 88.65 48.2444 88.7316 48.2811 88.8316C48.3211 88.9283 48.3411 89.0366 48.3411 89.1566C48.3411 89.4 48.2727 89.6033 48.1361 89.7666C47.9994 89.93 47.8244 90.0466 47.6111 90.1166C47.3977 90.1866 47.1544 90.2216 46.8811 90.2216C46.2244 90.2216 45.6527 89.9983 45.1661 89.5516L45.4311 89.2516C45.8611 89.6516 46.3477 89.8516 46.8911 89.8516C47.1877 89.8516 47.4311 89.7983 47.6211 89.6916C47.8111 89.5816 47.9061 89.4216 47.9061 89.2116C47.9061 89.095 47.8794 88.9983 47.8261 88.9216C47.7727 88.8416 47.6911 88.7816 47.5811 88.7416C47.4711 88.6983 47.3627 88.6683 47.2561 88.6516C47.1494 88.635 47.0144 88.62 46.8511 88.6066C46.6911 88.5966 46.5694 88.5883 46.4861 88.5816C46.4061 88.5716 46.2944 88.5566 46.1511 88.5366C46.0111 88.5133 45.9027 88.4833 45.8261 88.4466C45.7494 88.41 45.6694 88.3633 45.5861 88.3066C45.5027 88.2466 45.4411 88.1716 45.4011 88.0816C45.3644 87.9883 45.3461 87.88 45.3461 87.7566C45.3461 87.58 45.3844 87.4266 45.4611 87.2966C45.5411 87.1633 45.6461 87.0616 45.7761 86.9916C45.9094 86.9216 46.0477 86.87 46.1911 86.8366C46.3377 86.8033 46.4894 86.7866 46.6461 86.7866C46.9527 86.7866 47.2344 86.835 47.4911 86.9316C47.7477 87.0283 47.9511 87.1383 48.1011 87.2616Z"
        fill="#000000" />
    <path
        d="M48.7384 41.5614H51.8634V41.7567C51.1342 41.7724 50.6108 42.2047 50.2931 43.0536C49.4285 45.4703 48.9598 46.788 48.8868 47.0067C48.0014 49.637 47.5249 51.1396 47.4572 51.5146C47.4155 51.7281 47.3947 51.926 47.3947 52.1083C47.3947 52.3948 47.4155 52.6396 47.4572 52.8427C47.0926 52.9208 46.6499 53.1291 46.129 53.4677L43.2228 44.4911L42.9181 43.5614C42.9129 43.5406 42.8686 43.4078 42.7853 43.163C42.754 43.0745 42.7228 42.9989 42.6915 42.9364C42.6655 42.8687 42.642 42.8192 42.6212 42.788C42.6056 42.7515 42.5795 42.7021 42.5431 42.6396C42.5066 42.5771 42.4754 42.5224 42.4493 42.4755C42.2566 42.0797 41.9103 41.8401 41.4103 41.7567V41.5614H45.2072V41.7567C44.9624 41.8036 44.767 41.8817 44.6212 41.9911C44.4806 42.0953 44.3973 42.2776 44.3712 42.538C44.3243 42.8297 44.4259 43.3583 44.6759 44.1239L47.1525 51.6474C47.2306 51.189 47.7124 49.6265 48.5978 46.9599L48.8009 46.3192L49.0275 45.6942L49.2228 45.1161L49.5431 44.0927C49.7358 43.4312 49.8191 42.9781 49.7931 42.7333C49.7775 42.1291 49.4259 41.8036 48.7384 41.7567V41.5614Z"
        fill="#000000" />
    <path
        d="M46.0068 7.17805L41.5926 29.6268L33.0954 19.8268L35.8542 32.1337L18.5286 20.9663L30.1158 37.6035L18.1975 36.0081L27.0259 41.7058L9.47949 45.922L27.0259 49.5685L19.301 55.608L30.1158 54.8103L19.301 68.5986L36.406 58.5708L33.6471 71.1056L42.1444 59.7103L46.3379 83.5264L50.6417 60.394L58.8079 71.3335L56.0491 58.5708L73.4851 68.9405L61.8979 54.8103L73.154 55.608L63.6635 49.5685L83.417 45.8081L63.6635 42.0476L73.3747 36.35L60.2426 38.1732L73.154 21.5361L56.2698 32.3616L58.8079 19.8268L50.2003 29.6268L46.0068 7.17805Z"
        stroke="#000000" />
    <path
        d="M46.5586 34.343C52.484 34.343 57.3154 39.3077 57.3154 45.4661C57.3154 51.6245 52.4841 56.5891 46.5586 56.5891C40.6333 56.589 35.8027 51.6244 35.8027 45.4661C35.8028 39.3078 40.6333 34.3432 46.5586 34.343Z"
        stroke="#000000" />
    <path
        d="M46.5586 35.7105C51.7527 35.7105 55.9912 40.0631 55.9912 45.4663C55.9912 50.8695 51.7527 55.2222 46.5586 55.2222C41.3647 55.222 37.127 50.8694 37.127 45.4663C37.127 40.0632 41.3646 35.7106 46.5586 35.7105Z"
        stroke="#000000" />
</svg>