<svg width="78" height="82" viewBox="0 0 78 82" fill="none" xmlns="http://www.w3.org/2000/svg">
<path d="M4.70117 47.3586L5.63257 47.1716L8.18584 51.9826L8.23486 51.9727L8.90717 46.5138L9.55424 46.3838L12.1565 51.185L12.2154 51.1732L12.8386 45.7241L13.721 45.5469L12.8693 52.3779L11.9967 52.5532L9.54184 48.0488L9.48301 48.0606L8.83979 53.1873L7.96722 53.3625L4.70117 47.3586Z" fill="#606060" fill-opacity="0.4"/>
<path d="M35.8642 7.44479L36.7171 7.27346L37.9243 13.6909L37.1498 13.8465L32.1549 9.74009L32.1451 9.74206L33.0712 14.6657L32.2183 14.837L31.0111 8.41959L31.7856 8.26401L36.7805 12.3704L36.7903 12.3684L35.8642 7.44479Z" fill="#606060" fill-opacity="0.4"/>
<path d="M71.0086 35.395L71.151 36.1518L68.5627 36.6717L68.9842 38.9124L73.5039 38.0045L73.6462 38.7612L68.2735 39.8404L67.0664 33.423L72.2136 32.3891L72.3559 33.1458L68.0617 34.0084L68.4203 35.9149L71.0086 35.395Z" fill="#606060" fill-opacity="0.4"/>
<path d="M49.3393 70.9262L48.9404 71.6182C48.6657 71.4558 48.3077 71.3374 47.8663 71.2628C47.4303 71.1804 46.9475 71.1924 46.4181 71.2987C45.954 71.392 45.5758 71.5631 45.2835 71.8122C44.9966 72.0534 44.8882 72.3608 44.9584 72.7342C44.9831 72.8653 45.0281 72.9786 45.0936 73.0742C45.1644 73.162 45.2648 73.2268 45.3947 73.2687C45.53 73.3027 45.6471 73.3302 45.746 73.3511C45.8449 73.3721 46.0014 73.3746 46.2155 73.3588C46.4361 73.3417 46.596 73.3266 46.6953 73.3134C46.7946 73.3003 46.9729 73.2747 47.2303 73.2366C47.4681 73.2024 47.6437 73.1807 47.7573 73.1715C47.8774 73.161 48.0621 73.1511 48.3113 73.1418C48.5593 73.126 48.7569 73.1305 48.904 73.1554C49.0499 73.1737 49.2236 73.2136 49.4251 73.2751C49.6319 73.3287 49.796 73.408 49.9175 73.5128C50.0455 73.6162 50.1639 73.759 50.2728 73.9411C50.3869 74.1154 50.4662 74.3204 50.5106 74.5563C50.6005 75.0346 50.5417 75.4612 50.3341 75.836C50.1265 76.2109 49.8265 76.5091 49.4341 76.7307C49.0417 76.9523 48.5775 77.117 48.0415 77.2246C46.7539 77.4833 45.5504 77.2694 44.431 76.5832L44.8397 75.8892C45.8307 76.506 46.8589 76.7074 47.9243 76.4934C48.506 76.3766 48.9635 76.1759 49.2966 75.8914C49.6285 75.6004 49.7556 75.2485 49.6779 74.8357C49.6348 74.6064 49.5468 74.4269 49.4139 74.2972C49.2797 74.161 49.0974 74.0752 48.8669 74.0399C48.6352 73.9981 48.4117 73.9818 48.1964 73.991C47.981 74.0003 47.7108 74.024 47.3856 74.0621C47.0681 74.1055 46.8265 74.137 46.6606 74.1567C46.5001 74.1686 46.2756 74.1831 45.9871 74.2002C45.704 74.2095 45.4805 74.1932 45.3166 74.1513C45.1527 74.1095 44.9786 74.0492 44.7942 73.9707C44.6086 73.8856 44.46 73.7624 44.3483 73.6013C44.2419 73.4323 44.1659 73.2266 44.1203 72.9842C44.0549 72.6369 44.0734 72.3204 44.1757 72.0347C44.2832 71.7412 44.4515 71.5 44.6806 71.3112C44.9161 71.1211 45.1683 70.965 45.437 70.8431C45.7123 70.7198 46.0035 70.6273 46.3107 70.5656C46.912 70.4448 47.4822 70.4289 48.0212 70.5178C48.5602 70.6067 48.9996 70.7428 49.3393 70.9262Z" fill="#606060" fill-opacity="0.4"/>
<path d="M42.155 38.4787L44.8358 37.9402L44.8674 38.1082C44.2444 38.2473 43.8653 38.7092 43.7301 39.494C43.3793 41.7211 43.1903 42.935 43.1631 43.1357C42.829 45.55 42.6632 46.9242 42.6658 47.2584C42.6646 47.4492 42.6788 47.623 42.7082 47.7797C42.7546 48.026 42.8121 48.233 42.8807 48.4004C42.5805 48.5304 42.2344 48.7859 41.8424 49.1667L37.8972 41.9484L37.4854 41.2015C37.4776 41.1844 37.4181 41.0779 37.3071 40.8817C37.2659 40.811 37.2269 40.7514 37.19 40.7031C37.1567 40.6493 37.1286 40.6108 37.1057 40.5875C37.0864 40.5589 37.056 40.5208 37.0146 40.4733C36.9732 40.4259 36.9376 40.3842 36.9077 40.3484C36.6783 40.0412 36.3424 39.8949 35.9 39.9094L35.8684 39.7414L39.1256 39.0872L39.1572 39.2551C38.9548 39.3376 38.7999 39.4385 38.6925 39.5577C38.5887 39.6715 38.5467 39.8426 38.5665 40.071C38.5735 40.3299 38.7461 40.767 39.0844 41.3823L42.4259 47.4251C42.4188 47.0175 42.5794 45.5908 42.9076 43.1452L42.9782 42.5593L43.0715 41.9828L43.1455 41.452L43.2547 40.5167C43.3131 39.9147 43.3113 39.5107 43.2493 39.3047C43.1382 38.7879 42.7839 38.5685 42.1866 38.6467L42.155 38.4787Z" fill="#606060" fill-opacity="0.4"/>
<path d="M35.2215 14.0913L35.1338 30.8714L27.7899 25.0289L31.4094 33.4914L17.6284 27.9208L28.0859 38.2433L19.4298 38.7907L26.4529 41.6344L14.5978 47.164L27.5171 47.2918L22.8641 52.7361L30.4148 50.6239L24.6223 62.0831L35.3783 52.4348L35.1211 61.8462L39.5963 52.4385L45.7894 68.978L45.7063 51.7217L52.97 58.4312L49.2889 49.6407L63.04 54.6217L52.9218 46.103L61.001 45.0758L53.4628 42.0803L66.9425 36.5648L52.4448 36.6689L58.5508 31.188L49.4978 34.3678L56.3895 20.5606L45.8979 30.7514L45.9988 21.3714L41.2295 29.647L35.2215 14.0913Z" stroke="#606060" stroke-opacity="0.4"/>
<path d="M39.3141 33.69C43.4248 32.8645 47.4535 35.6905 48.2753 40.0591C49.097 44.4278 46.3861 48.6075 42.2755 49.4334C38.1647 50.2591 34.1352 47.4332 33.3134 43.0644C32.4916 38.6957 35.2032 34.5157 39.3141 33.69Z" stroke="#606060" stroke-opacity="0.4"/>
<path d="M39.4988 34.6741C43.0917 33.9524 46.6181 36.4224 47.3376 40.2478C48.0571 44.0731 45.683 47.7284 42.0902 48.4501C38.4974 49.1717 34.971 46.7016 34.2514 42.8764C33.5318 39.051 35.906 35.3958 39.4988 34.6741Z" stroke="#606060" stroke-opacity="0.4"/>
</svg>
